<svg width="50" height="50" viewBox="0 0 50 50" fill="none" xmlns="http://www.w3.org/2000/svg">
<rect x="0.5" y="0.5" width="49" height="49" stroke="url(#paint0_radial_199_105)"/>
<path fill-rule="evenodd" clip-rule="evenodd" d="M25.4999 11C18.0451 11 12 16.9673 12 24.3291C12 30.2185 15.8681 35.2146 21.232 36.9773C21.9065 37.1009 22.1542 36.6882 22.1542 36.3361C22.1542 36.0183 22.1417 34.9683 22.1359 33.8545C18.3802 34.6608 17.5877 32.2818 17.5877 32.2818C16.9736 30.7412 16.0888 30.3315 16.0888 30.3315C14.8637 29.5042 16.1811 29.5215 16.1811 29.5215C17.5365 29.6153 18.2505 30.895 18.2505 30.895C19.4546 32.9323 21.4087 32.3434 22.179 32.0031C22.3002 31.1416 22.65 30.5533 23.0361 30.2205C20.0376 29.8839 16.8853 28.7407 16.8853 23.6334C16.8853 22.1782 17.4129 20.9891 18.2765 20.0555C18.1361 19.72 17.674 18.3643 18.407 16.5283C18.407 16.5283 19.5404 16.17 22.1202 17.8946C23.1973 17.599 24.3524 17.4505 25.4999 17.4454C26.6467 17.4505 27.8025 17.5986 28.8816 17.8941C31.4582 16.1696 32.5903 16.5278 32.5903 16.5278C33.3251 18.3636 32.863 19.7195 32.7229 20.055C33.5885 20.9887 34.1122 22.1777 34.1122 23.633C34.1122 28.7524 30.9541 29.8795 27.948 30.2097C28.4324 30.6233 28.8639 31.4347 28.8639 32.678C28.8639 34.4615 28.8483 35.8969 28.8483 36.3359C28.8483 36.6906 29.0915 37.1062 29.7756 36.9753C35.1363 35.2109 39 30.2163 39 24.3291C38.9998 16.9677 32.9554 11 25.4999 11Z" fill="url(#paint1_linear_199_105)"/>
<defs>
<radialGradient id="paint0_radial_199_105" cx="0" cy="0" r="1" gradientUnits="userSpaceOnUse" gradientTransform="rotate(50.7106) scale(32.3015 82.1945)">
<stop stop-color="#FFE195"/>
<stop offset="0.177083" stop-color="#F2BB5A" stop-opacity="0.876812"/>
<stop offset="0.359375" stop-color="#BF7A00" stop-opacity="0.75"/>
<stop offset="1" stop-color="#BF7A00" stop-opacity="0"/>
<stop offset="1" stop-color="#0F1218" stop-opacity="0"/>
</radialGradient>
<linearGradient id="paint1_linear_199_105" x1="37.8088" y1="35.4706" x2="8.92119" y2="21.236" gradientUnits="userSpaceOnUse">
<stop stop-color="#FFE5A2"/>
<stop offset="0.505208" stop-color="#BF841A"/>
<stop offset="1" stop-color="#FFCD74"/>
</linearGradient>
</defs>
</svg>
