<svg width="51" height="50" viewBox="0 0 51 50" fill="none" xmlns="http://www.w3.org/2000/svg">
<rect x="0.859863" y="0.5" width="49" height="49" stroke="url(#paint0_radial_128_575)"/>
<path fill-rule="evenodd" clip-rule="evenodd" d="M25.8598 11C18.4049 11 12.3599 16.9673 12.3599 24.3291C12.3599 30.2185 16.228 35.2146 21.5919 36.9773C22.2664 37.1009 22.5141 36.6882 22.5141 36.3361C22.5141 36.0183 22.5015 34.9683 22.4957 33.8545C18.7401 34.6608 17.9476 32.2818 17.9476 32.2818C17.3335 30.7412 16.4486 30.3315 16.4486 30.3315C15.2236 29.5042 16.541 29.5215 16.541 29.5215C17.8964 29.6153 18.6104 30.895 18.6104 30.895C19.8144 32.9323 21.7685 32.3434 22.5389 32.0031C22.66 31.1416 23.0099 30.5533 23.396 30.2205C20.3975 29.8839 17.2452 28.7407 17.2452 23.6334C17.2452 22.1782 17.7727 20.9891 18.6363 20.0555C18.4959 19.72 18.0338 18.3643 18.7669 16.5283C18.7669 16.5283 19.9003 16.17 22.4801 17.8946C23.5572 17.599 24.7123 17.4505 25.8598 17.4454C27.0066 17.4505 28.1623 17.5986 29.2414 17.8941C31.8181 16.1696 32.9502 16.5278 32.9502 16.5278C33.685 18.3636 33.2229 19.7195 33.0827 20.055C33.9483 20.9887 34.4721 22.1777 34.4721 23.633C34.4721 28.7524 31.314 29.8795 28.3079 30.2097C28.7923 30.6233 29.2238 31.4347 29.2238 32.678C29.2238 34.4615 29.2081 35.8969 29.2081 36.3359C29.2081 36.6906 29.4513 37.1062 30.1354 36.9753C35.4962 35.2109 39.3599 30.2163 39.3599 24.3291C39.3596 16.9677 33.3152 11 25.8598 11Z" fill="url(#paint1_linear_128_575)"/>
<defs>
<radialGradient id="paint0_radial_128_575" cx="0" cy="0" r="1" gradientUnits="userSpaceOnUse" gradientTransform="translate(0.359863) rotate(50.7106) scale(32.3015 82.1945)">
<stop stop-color="#FFE195"/>
<stop offset="0.177083" stop-color="#F2BB5A" stop-opacity="0.876812"/>
<stop offset="0.359375" stop-color="#BF7A00" stop-opacity="0.75"/>
<stop offset="1" stop-color="#BF7A00" stop-opacity="0"/>
<stop offset="1" stop-color="#0F1218" stop-opacity="0"/>
</radialGradient>
<linearGradient id="paint1_linear_128_575" x1="38.1687" y1="35.4706" x2="9.28105" y2="21.236" gradientUnits="userSpaceOnUse">
<stop stop-color="#FFE5A2"/>
<stop offset="0.505208" stop-color="#BF841A"/>
<stop offset="1" stop-color="#FFCD74"/>
</linearGradient>
</defs>
</svg>
