<svg width="180" height="54" viewBox="0 0 180 54" fill="none" xmlns="http://www.w3.org/2000/svg">
<path d="M0.5 0.5H179.5V53.5H0.5V0.5Z" stroke="url(#paint0_linear_148_122)"/>
<path d="M0.5 0.5H179.5V53.5H0.5V0.5Z" stroke="url(#paint1_linear_148_122)" stroke-opacity="0.2"/>
<path d="M18.39 33V20.4H23.304C24.408 20.4 25.35 20.574 26.13 20.922C26.91 21.27 27.51 21.774 27.93 22.434C28.35 23.094 28.56 23.88 28.56 24.792C28.56 25.704 28.35 26.49 27.93 27.15C27.51 27.798 26.91 28.302 26.13 28.662C25.35 29.01 24.408 29.184 23.304 29.184H19.38L20.19 28.338V33H18.39ZM20.19 28.518L19.38 27.618H23.25C24.402 27.618 25.272 27.372 25.86 26.88C26.46 26.388 26.76 25.692 26.76 24.792C26.76 23.892 26.46 23.196 25.86 22.704C25.272 22.212 24.402 21.966 23.25 21.966H19.38L20.19 21.066V28.518ZM33.9045 33V20.4H38.8185C39.9225 20.4 40.8645 20.574 41.6445 20.922C42.4245 21.27 43.0245 21.774 43.4445 22.434C43.8645 23.094 44.0745 23.88 44.0745 24.792C44.0745 25.704 43.8645 26.49 43.4445 27.15C43.0245 27.798 42.4245 28.296 41.6445 28.644C40.8645 28.992 39.9225 29.166 38.8185 29.166H34.8945L35.7045 28.338V33H33.9045ZM42.3285 33L39.1245 28.428H41.0505L44.2905 33H42.3285ZM35.7045 28.518L34.8945 27.636H38.7645C39.9165 27.636 40.7865 27.39 41.3745 26.898C41.9745 26.394 42.2745 25.692 42.2745 24.792C42.2745 23.892 41.9745 23.196 41.3745 22.704C40.7865 22.212 39.9165 21.966 38.7645 21.966H34.8945L35.7045 21.066V28.518ZM55.3706 33.144C54.4106 33.144 53.5166 32.982 52.6886 32.658C51.8726 32.334 51.1646 31.884 50.5646 31.308C49.9646 30.72 49.4966 30.036 49.1606 29.256C48.8246 28.476 48.6566 27.624 48.6566 26.7C48.6566 25.776 48.8246 24.924 49.1606 24.144C49.4966 23.364 49.9646 22.686 50.5646 22.11C51.1646 21.522 51.8726 21.066 52.6886 20.742C53.5046 20.418 54.3986 20.256 55.3706 20.256C56.3306 20.256 57.2126 20.418 58.0166 20.742C58.8326 21.054 59.5406 21.504 60.1406 22.092C60.7526 22.668 61.2206 23.346 61.5446 24.126C61.8806 24.906 62.0486 25.764 62.0486 26.7C62.0486 27.636 61.8806 28.494 61.5446 29.274C61.2206 30.054 60.7526 30.738 60.1406 31.326C59.5406 31.902 58.8326 32.352 58.0166 32.676C57.2126 32.988 56.3306 33.144 55.3706 33.144ZM55.3706 31.542C56.0666 31.542 56.7086 31.422 57.2966 31.182C57.8966 30.942 58.4126 30.606 58.8446 30.174C59.2886 29.73 59.6306 29.214 59.8706 28.626C60.1226 28.038 60.2486 27.396 60.2486 26.7C60.2486 26.004 60.1226 25.362 59.8706 24.774C59.6306 24.186 59.2886 23.676 58.8446 23.244C58.4126 22.8 57.8966 22.458 57.2966 22.218C56.7086 21.978 56.0666 21.858 55.3706 21.858C54.6626 21.858 54.0086 21.978 53.4086 22.218C52.8206 22.458 52.3046 22.8 51.8606 23.244C51.4166 23.676 51.0686 24.186 50.8166 24.774C50.5766 25.362 50.4566 26.004 50.4566 26.7C50.4566 27.396 50.5766 28.038 50.8166 28.626C51.0686 29.214 51.4166 29.73 51.8606 30.174C52.3046 30.606 52.8206 30.942 53.4086 31.182C54.0086 31.422 54.6626 31.542 55.3706 31.542ZM68.8561 33.144C68.1121 33.144 67.4161 32.988 66.7681 32.676C66.1201 32.364 65.5921 31.914 65.1841 31.326L66.2281 30.102C66.5761 30.582 66.9661 30.954 67.3981 31.218C67.8421 31.47 68.3281 31.596 68.8561 31.596C70.2961 31.596 71.0161 30.744 71.0161 29.04V21.966H66.4621V20.4H72.7981V28.95C72.7981 30.354 72.4621 31.404 71.7901 32.1C71.1301 32.796 70.1521 33.144 68.8561 33.144ZM80.8026 25.836H87.2826V27.366H80.8026V25.836ZM80.9646 31.434H88.3086V33H79.1646V20.4H88.0566V21.966H80.9646V31.434ZM96.4252 33V21.966H92.1052V20.4H102.527V21.966H98.2072V33H96.4252ZM112.7 33.144C111.74 33.144 110.846 32.982 110.018 32.658C109.202 32.334 108.494 31.884 107.894 31.308C107.294 30.72 106.826 30.036 106.49 29.256C106.154 28.476 105.986 27.624 105.986 26.7C105.986 25.776 106.154 24.924 106.49 24.144C106.826 23.364 107.294 22.686 107.894 22.11C108.494 21.522 109.202 21.066 110.018 20.742C110.834 20.418 111.728 20.256 112.7 20.256C113.66 20.256 114.542 20.418 115.346 20.742C116.162 21.054 116.87 21.504 117.47 22.092C118.082 22.668 118.55 23.346 118.874 24.126C119.21 24.906 119.378 25.764 119.378 26.7C119.378 27.636 119.21 28.494 118.874 29.274C118.55 30.054 118.082 30.738 117.47 31.326C116.87 31.902 116.162 32.352 115.346 32.676C114.542 32.988 113.66 33.144 112.7 33.144ZM112.7 31.542C113.396 31.542 114.038 31.422 114.626 31.182C115.226 30.942 115.742 30.606 116.174 30.174C116.618 29.73 116.96 29.214 117.2 28.626C117.452 28.038 117.578 27.396 117.578 26.7C117.578 26.004 117.452 25.362 117.2 24.774C116.96 24.186 116.618 23.676 116.174 23.244C115.742 22.8 115.226 22.458 114.626 22.218C114.038 21.978 113.396 21.858 112.7 21.858C111.992 21.858 111.338 21.978 110.738 22.218C110.15 22.458 109.634 22.8 109.19 23.244C108.746 23.676 108.398 24.186 108.146 24.774C107.906 25.362 107.786 26.004 107.786 26.7C107.786 27.396 107.906 28.038 108.146 28.626C108.398 29.214 108.746 29.73 109.19 30.174C109.634 30.606 110.15 30.942 110.738 31.182C111.338 31.422 111.992 31.542 112.7 31.542ZM128.501 33.144C127.541 33.144 126.623 33 125.747 32.712C124.871 32.412 124.181 32.028 123.677 31.56L124.343 30.156C124.823 30.576 125.435 30.924 126.179 31.2C126.923 31.476 127.697 31.614 128.501 31.614C129.233 31.614 129.827 31.53 130.283 31.362C130.739 31.194 131.075 30.966 131.291 30.678C131.507 30.378 131.615 30.042 131.615 29.67C131.615 29.238 131.471 28.89 131.183 28.626C130.907 28.362 130.541 28.152 130.085 27.996C129.641 27.828 129.149 27.684 128.609 27.564C128.069 27.444 127.523 27.306 126.971 27.15C126.431 26.982 125.933 26.772 125.477 26.52C125.033 26.268 124.673 25.932 124.397 25.512C124.121 25.08 123.983 24.528 123.983 23.856C123.983 23.208 124.151 22.614 124.487 22.074C124.835 21.522 125.363 21.084 126.071 20.76C126.791 20.424 127.703 20.256 128.807 20.256C129.539 20.256 130.265 20.352 130.985 20.544C131.705 20.736 132.329 21.012 132.857 21.372L132.263 22.812C131.723 22.452 131.153 22.194 130.553 22.038C129.953 21.87 129.371 21.786 128.807 21.786C128.099 21.786 127.517 21.876 127.061 22.056C126.605 22.236 126.269 22.476 126.053 22.776C125.849 23.076 125.747 23.412 125.747 23.784C125.747 24.228 125.885 24.582 126.161 24.846C126.449 25.11 126.815 25.32 127.259 25.476C127.715 25.632 128.213 25.776 128.753 25.908C129.293 26.028 129.833 26.166 130.373 26.322C130.925 26.478 131.423 26.682 131.867 26.934C132.323 27.186 132.689 27.522 132.965 27.942C133.241 28.362 133.379 28.902 133.379 29.562C133.379 30.198 133.205 30.792 132.857 31.344C132.509 31.884 131.969 32.322 131.237 32.658C130.517 32.982 129.605 33.144 128.501 33.144Z" fill="url(#paint2_linear_148_122)"/>
<g clip-path="url(#clip0_148_122)">
<path d="M147.75 24.375L153 29.625L158.25 24.375" stroke="url(#paint3_linear_148_122)" stroke-width="2" stroke-linecap="round" stroke-linejoin="round"/>
</g>
<defs>
<linearGradient id="paint0_linear_148_122" x1="-9.10112" y1="-4.5" x2="6.32613" y2="50.1329" gradientUnits="userSpaceOnUse">
<stop stop-color="#FFE195"/>
<stop offset="0.177083" stop-color="#F2BB5A" stop-opacity="0.876812"/>
<stop offset="0.359375" stop-color="#BF7A00" stop-opacity="0.75"/>
<stop offset="1" stop-color="#BF7A00" stop-opacity="0"/>
<stop offset="1" stop-color="#0F1218" stop-opacity="0"/>
</linearGradient>
<linearGradient id="paint1_linear_148_122" x1="155.094" y1="62.5909" x2="108.025" y2="28.2035" gradientUnits="userSpaceOnUse">
<stop stop-color="#8FA8FF"/>
<stop offset="1" stop-opacity="0"/>
</linearGradient>
<linearGradient id="paint2_linear_148_122" x1="129.294" y1="49.0588" x2="59.6837" y2="-28.8935" gradientUnits="userSpaceOnUse">
<stop stop-color="#FFE5A2"/>
<stop offset="0.505208" stop-color="#BF841A"/>
<stop offset="1" stop-color="#FFCD74"/>
</linearGradient>
<linearGradient id="paint3_linear_148_122" x1="157.787" y1="29.3162" x2="150.441" y2="22.3448" gradientUnits="userSpaceOnUse">
<stop stop-color="#FFE5A2"/>
<stop offset="0.505208" stop-color="#BF841A"/>
<stop offset="1" stop-color="#FFCD74"/>
</linearGradient>
<clipPath id="clip0_148_122">
<rect width="21" height="21" fill="white" transform="translate(142.5 16.5)"/>
</clipPath>
</defs>
</svg>
