<svg width="51" height="50" viewBox="0 0 51 50" fill="none" xmlns="http://www.w3.org/2000/svg">
<g clip-path="url(#clip0_125_158)">
<rect x="0.859863" y="0.5" width="49" height="49" stroke="url(#paint0_radial_125_158)"/>
<path d="M20.7488 14C17.2259 14 14.3599 16.8661 14.3599 20.3889V30.6111C14.3599 34.1339 17.2259 37 20.7488 37H30.971C34.4938 37 37.3599 34.1339 37.3599 30.6111V20.3889C37.3599 16.8661 34.4938 14 30.971 14H20.7488ZM20.7488 16.5556H30.971C33.0844 16.5556 34.8043 18.2754 34.8043 20.3889V30.6111C34.8043 32.7246 33.0844 34.4444 30.971 34.4444H20.7488C18.6353 34.4444 16.9154 32.7246 16.9154 30.6111V20.3889C16.9154 18.2754 18.6353 16.5556 20.7488 16.5556ZM32.2488 17.8333C31.9099 17.8333 31.5849 17.968 31.3452 18.2076C31.1056 18.4472 30.971 18.7722 30.971 19.1111C30.971 19.45 31.1056 19.775 31.3452 20.0146C31.5849 20.2543 31.9099 20.3889 32.2488 20.3889C32.5876 20.3889 32.9126 20.2543 33.1523 20.0146C33.3919 19.775 33.5265 19.45 33.5265 19.1111C33.5265 18.7722 33.3919 18.4472 33.1523 18.2076C32.9126 17.968 32.5876 17.8333 32.2488 17.8333ZM25.8599 19.1111C22.337 19.1111 19.471 21.9772 19.471 25.5C19.471 29.0228 22.337 31.8889 25.8599 31.8889C29.3827 31.8889 32.2488 29.0228 32.2488 25.5C32.2488 21.9772 29.3827 19.1111 25.8599 19.1111ZM25.8599 21.6667C27.9733 21.6667 29.6932 23.3866 29.6932 25.5C29.6932 27.6134 27.9733 29.3333 25.8599 29.3333C23.7464 29.3333 22.0265 27.6134 22.0265 25.5C22.0265 23.3866 23.7464 21.6667 25.8599 21.6667Z" fill="url(#paint1_linear_125_158)"/>
</g>
<defs>
<radialGradient id="paint0_radial_125_158" cx="0" cy="0" r="1" gradientUnits="userSpaceOnUse" gradientTransform="translate(0.359863) rotate(50.7106) scale(32.3015 82.1945)">
<stop stop-color="#FFE195"/>
<stop offset="0.177083" stop-color="#F2BB5A" stop-opacity="0.876812"/>
<stop offset="0.359375" stop-color="#BF7A00" stop-opacity="0.75"/>
<stop offset="1" stop-color="#BF7A00" stop-opacity="0"/>
<stop offset="1" stop-color="#0F1218" stop-opacity="0"/>
</radialGradient>
<linearGradient id="paint1_linear_125_158" x1="36.3452" y1="35.6471" x2="11.3826" y2="23.8021" gradientUnits="userSpaceOnUse">
<stop stop-color="#FFE5A2"/>
<stop offset="0.505208" stop-color="#BF841A"/>
<stop offset="1" stop-color="#FFCD74"/>
</linearGradient>
<clipPath id="clip0_125_158">
<rect width="50" height="50" fill="white" transform="translate(0.359863)"/>
</clipPath>
</defs>
</svg>
