<svg width="292" height="50" viewBox="0 0 292 50" fill="none" xmlns="http://www.w3.org/2000/svg">
<path d="M27.5395 44.7692C37.4404 43.6276 45.1291 35.1898 45.1291 24.9503C45.1291 13.9321 36.2264 5 25.2445 5C14.2625 5 5.35986 13.9321 5.35986 24.9503C5.35986 32.1478 9.15873 38.4551 14.8545 41.9639" stroke="url(#paint0_radial_180_166)" stroke-linecap="round"/>
<path d="M24.8944 17.7445C24.2231 16.9693 23.2163 15.8007 22.6608 15.1687C22.0937 14.5247 21.6077 14 21.5614 14C21.5151 14 20.4504 15.3714 19.2005 17.0647C17.9391 18.7581 15.856 21.5724 14.5714 23.3135L14.3516 23.6086C13.1071 25.2803 11.7158 27.149 11.1805 27.8808C10.6019 28.6559 9.23626 30.4923 8.12526 31.983C7.02584 33.4736 6.10001 34.7615 6.07687 34.8331C6.04215 34.9523 7.45404 34.9881 19.7444 35L20.4851 34.0102C20.8902 33.4617 21.7003 32.3884 22.2789 31.6133C22.8575 30.8262 24.0958 29.1687 25.0217 27.9165C25.9475 26.6525 26.7808 25.615 26.8733 25.6031C26.9659 25.5911 28.3084 27.0579 29.8707 28.8586C31.4331 30.6593 32.7408 32.1022 32.7755 32.0426C32.8102 31.9949 33.4352 31.1363 34.1643 30.1584C34.8933 29.1687 35.7729 27.9762 36.7566 26.6405L37.2195 27.201C37.4741 27.5111 38.5619 28.7871 39.6382 30.0392C40.7145 31.2794 42.1264 32.9131 43.9318 35L46.6167 34.9881C48.098 34.9881 49.3363 34.9523 49.3594 34.8927C49.3826 34.845 48.4452 33.6882 47.2648 32.3049C46.0843 30.9216 44.3484 28.9182 43.411 27.8331C42.4852 26.7479 41.2469 25.3288 40.6798 24.661C40.1127 24.0051 38.967 22.6695 38.1453 21.7155C37.3121 20.7496 36.6061 19.9744 36.5598 19.9864C36.5135 20.0102 35.6572 21.1193 34.6503 22.4668C33.6435 23.8143 32.6598 25.138 32.4746 25.4123C32.2779 25.6985 32.1043 25.925 32.0696 25.925C32.0348 25.937 30.6808 24.4106 29.0606 22.5503C27.4404 20.69 25.5656 18.5315 24.8944 17.7445Z" fill="#FCFDFD"/>
<path d="M11.3425 25.4719C11.1805 25.293 10.6134 24.6491 10.0927 24.0409C9.5603 23.4446 9.10896 22.9438 9.08582 22.9438C9.06267 22.9438 8.40302 23.8143 7.62763 24.8756C6.85225 25.9489 5.07002 28.3697 3.6697 30.2777C2.26939 32.1738 0.950077 33.9506 0.741764 34.2129C0.533455 34.4753 0.359863 34.7615 0.359863 34.8331C0.359863 34.9523 0.764912 34.9881 3.60027 34.9881L5.13946 32.925C5.98428 31.8041 7.28045 30.0511 8.03268 29.0494C8.77335 28.0596 9.40985 27.1533 9.44458 27.0579C9.47929 26.9625 9.58345 26.879 9.67603 26.879C9.76862 26.879 9.89592 26.9864 9.96535 27.1175C10.0232 27.2487 10.1621 27.356 10.2547 27.356C10.3473 27.356 10.706 26.9983 11.6434 25.7939L11.3425 25.4719Z" fill="#FCFDFD"/>
<path d="M67.8919 13.4V33H63.6919V13.4H67.8919ZM75.2839 31.796L75.9559 33H67.8079V31.796H75.2839ZM77.3279 27.26L76.0399 33H70.5519L71.5599 31.796C72.4932 31.796 73.3145 31.6187 74.0239 31.264C74.7332 30.8907 75.3399 30.368 75.8439 29.696C76.3479 29.0053 76.7492 28.1933 77.0479 27.26H77.3279ZM63.7759 30.956V33H61.5359V32.72C61.5359 32.72 61.5919 32.72 61.7039 32.72C61.8345 32.72 61.8999 32.72 61.8999 32.72C62.3852 32.72 62.7959 32.552 63.1319 32.216C63.4865 31.8613 63.6732 31.4413 63.6919 30.956H63.7759ZM63.7759 15.444H63.6919C63.6732 14.9587 63.4865 14.548 63.1319 14.212C62.7959 13.8573 62.3852 13.68 61.8999 13.68C61.8999 13.68 61.8345 13.68 61.7039 13.68C61.5919 13.68 61.5359 13.68 61.5359 13.68V13.4H63.7759V15.444ZM67.8079 15.444V13.4H70.0479V13.68C70.0292 13.68 69.9639 13.68 69.8519 13.68C69.7399 13.68 69.6839 13.68 69.6839 13.68C69.1985 13.68 68.7785 13.8573 68.4239 14.212C68.0879 14.548 67.9105 14.9587 67.8919 15.444H67.8079ZM85.0891 16.2V26.756C85.0891 28.4733 85.4811 29.8173 86.2651 30.788C87.0678 31.7587 88.1784 32.244 89.5971 32.244C91.0718 32.244 92.2104 31.7867 93.0131 30.872C93.8344 29.9573 94.2544 28.688 94.2731 27.064V16.2H96.1211V26.896C96.1211 28.8933 95.5051 30.4707 94.2731 31.628C93.0598 32.7853 91.3331 33.364 89.0931 33.364C86.3864 33.364 84.3704 32.7947 83.0451 31.656C81.7198 30.4987 81.0571 28.9213 81.0571 26.924V16.2H85.0891ZM81.1131 16.2V17.656H81.0571C81.0384 17.3013 80.9078 17.012 80.6651 16.788C80.4224 16.564 80.1238 16.452 79.7691 16.452C79.7691 16.452 79.7038 16.452 79.5731 16.452C79.4424 16.452 79.3771 16.452 79.3771 16.452V16.2H81.1131ZM86.7411 16.2V16.452C86.7411 16.452 86.6758 16.452 86.5451 16.452C86.4144 16.452 86.3491 16.452 86.3491 16.452C85.9944 16.452 85.6958 16.564 85.4531 16.788C85.2104 17.012 85.0891 17.3013 85.0891 17.656H85.0331V16.2H86.7411ZM94.3291 16.2V17.656H94.2731C94.2544 17.3013 94.1238 17.012 93.8811 16.788C93.6384 16.564 93.3491 16.452 93.0131 16.452C93.0131 16.452 92.9478 16.452 92.8171 16.452C92.6864 16.452 92.6211 16.452 92.6211 16.452V16.2H94.3291ZM97.7731 16.2V16.452C97.7731 16.452 97.7078 16.452 97.5771 16.452C97.4651 16.452 97.4091 16.452 97.4091 16.452C97.0544 16.452 96.7464 16.564 96.4851 16.788C96.2424 17.012 96.1211 17.3013 96.1211 17.656H96.0651V16.2H97.7731ZM107.537 15.444L115.825 32.86H111.093L105.885 20.568L107.537 15.444ZM102.273 31.152C102.068 31.656 102.096 32.048 102.357 32.328C102.618 32.5893 102.908 32.72 103.225 32.72H103.449V33H97.849V32.72C97.849 32.72 97.8864 32.72 97.961 32.72C98.0357 32.72 98.073 32.72 98.073 32.72C98.4464 32.72 98.8384 32.608 99.249 32.384C99.6597 32.1413 99.9957 31.7307 100.257 31.152H102.273ZM107.537 15.444L107.593 18.804L101.517 32.916H99.445L105.997 18.832C106.034 18.72 106.118 18.524 106.249 18.244C106.38 17.9453 106.52 17.6187 106.669 17.264C106.818 16.8907 106.958 16.5453 107.089 16.228C107.22 15.892 107.294 15.6307 107.313 15.444H107.537ZM109.973 27.512V28.604H102.833V27.512H109.973ZM110.393 31.152H115.013C115.293 31.7307 115.638 32.1413 116.049 32.384C116.46 32.608 116.852 32.72 117.225 32.72C117.225 32.72 117.262 32.72 117.337 32.72C117.412 32.72 117.449 32.72 117.449 32.72V33H109.217V32.72H109.441C109.758 32.72 110.048 32.5893 110.309 32.328C110.57 32.048 110.598 31.656 110.393 31.152ZM120.153 15.808L136.589 30.256L136.869 33.364L120.461 18.916L120.153 15.808ZM120.265 31.292V33H118.193V32.72C118.193 32.72 118.267 32.72 118.417 32.72C118.566 32.72 118.641 32.72 118.641 32.72C119.07 32.72 119.434 32.5893 119.733 32.328C120.031 32.048 120.181 31.7027 120.181 31.292H120.265ZM124.017 31.292C124.035 31.7027 124.194 32.048 124.493 32.328C124.791 32.5893 125.146 32.72 125.557 32.72C125.557 32.72 125.631 32.72 125.781 32.72C125.949 32.72 126.033 32.72 126.033 32.72V33H123.961V31.292H124.017ZM120.153 15.808L124.017 20.008V33H120.181V19C120.181 18.048 120.134 17.2827 120.041 16.704C119.947 16.1067 119.901 15.808 119.901 15.808H120.153ZM136.841 16.2V30.088C136.841 30.7413 136.859 31.32 136.897 31.824C136.953 32.3093 136.999 32.692 137.037 32.972C137.093 33.2333 137.121 33.364 137.121 33.364H136.869L133.005 28.912V16.2H136.841ZM136.757 17.908V16.2H138.857V16.48C138.857 16.48 138.773 16.48 138.605 16.48C138.455 16.48 138.381 16.48 138.381 16.48C137.97 16.48 137.606 16.62 137.289 16.9C136.99 17.1613 136.841 17.4973 136.841 17.908H136.757ZM133.005 17.908C132.986 17.4973 132.827 17.1613 132.529 16.9C132.249 16.62 131.894 16.48 131.465 16.48C131.465 16.48 131.381 16.48 131.213 16.48C131.063 16.48 130.989 16.48 130.989 16.48V16.2H133.061V17.908H133.005ZM160.565 33.392L159.753 32.272C160.836 32.3467 161.816 32.4493 162.693 32.58C163.57 32.692 164.401 32.832 165.185 33C165.969 33.1867 166.762 33.4013 167.565 33.644C168.368 33.9053 169.226 34.204 170.141 34.54C171.056 34.8947 172.092 35.296 173.249 35.744C174.5 36.2293 175.732 36.584 176.945 36.808C178.177 37.032 179.353 37.116 180.473 37.06C181.593 37.004 182.638 36.808 183.609 36.472C184.58 36.136 185.448 35.6507 186.213 35.016L186.381 35.128C186.325 36.0053 186.045 36.8267 185.541 37.592C185.037 38.3573 184.337 39.0107 183.441 39.552C182.545 40.0933 181.481 40.4573 180.249 40.644C179.036 40.8493 177.692 40.8213 176.217 40.56C174.742 40.3173 173.174 39.776 171.513 38.936C170.468 38.4133 169.478 37.844 168.545 37.228C167.612 36.6307 166.697 36.052 165.801 35.492C164.924 34.932 164.056 34.456 163.197 34.064C162.338 33.6907 161.461 33.4667 160.565 33.392ZM160.733 13.008C162.973 13.008 164.914 13.428 166.557 14.268C168.218 15.0893 169.497 16.256 170.393 17.768C171.289 19.28 171.737 21.0907 171.737 23.2C171.737 25.2907 171.289 27.1013 170.393 28.632C169.497 30.144 168.218 31.32 166.557 32.16C164.896 32.9813 162.954 33.392 160.733 33.392C158.493 33.392 156.542 32.9813 154.881 32.16C153.238 31.32 151.969 30.144 151.073 28.632C150.177 27.12 149.729 25.3093 149.729 23.2C149.729 21.1093 150.177 19.308 151.073 17.796C151.969 16.2653 153.238 15.0893 154.881 14.268C156.542 13.428 158.493 13.008 160.733 13.008ZM160.733 32.216C162.058 32.216 163.197 31.852 164.149 31.124C165.12 30.3773 165.857 29.332 166.361 27.988C166.884 26.644 167.145 25.048 167.145 23.2C167.145 21.352 166.884 19.756 166.361 18.412C165.857 17.068 165.12 16.032 164.149 15.304C163.197 14.5573 162.058 14.184 160.733 14.184C159.408 14.184 158.26 14.5573 157.289 15.304C156.337 16.032 155.6 17.068 155.077 18.412C154.573 19.756 154.321 21.352 154.321 23.2C154.321 25.048 154.582 26.644 155.105 27.988C155.628 29.332 156.365 30.3773 157.317 31.124C158.288 31.852 159.426 32.216 160.733 32.216ZM180.47 16.2V26.756C180.47 28.4733 180.862 29.8173 181.646 30.788C182.448 31.7587 183.559 32.244 184.978 32.244C186.452 32.244 187.591 31.7867 188.394 30.872C189.215 29.9573 189.635 28.688 189.654 27.064V16.2H191.502V26.896C191.502 28.8933 190.886 30.4707 189.654 31.628C188.44 32.7853 186.714 33.364 184.474 33.364C181.767 33.364 179.751 32.7947 178.426 31.656C177.1 30.4987 176.438 28.9213 176.438 26.924V16.2H180.47ZM176.494 16.2V17.656H176.438C176.419 17.3013 176.288 17.012 176.046 16.788C175.803 16.564 175.504 16.452 175.15 16.452C175.15 16.452 175.084 16.452 174.954 16.452C174.823 16.452 174.758 16.452 174.758 16.452V16.2H176.494ZM182.122 16.2V16.452C182.122 16.452 182.056 16.452 181.926 16.452C181.795 16.452 181.73 16.452 181.73 16.452C181.375 16.452 181.076 16.564 180.834 16.788C180.591 17.012 180.47 17.3013 180.47 17.656H180.414V16.2H182.122ZM189.71 16.2V17.656H189.654C189.635 17.3013 189.504 17.012 189.262 16.788C189.019 16.564 188.73 16.452 188.394 16.452C188.394 16.452 188.328 16.452 188.198 16.452C188.067 16.452 188.002 16.452 188.002 16.452V16.2H189.71ZM193.154 16.2V16.452C193.154 16.452 193.088 16.452 192.958 16.452C192.846 16.452 192.79 16.452 192.79 16.452C192.435 16.452 192.127 16.564 191.866 16.788C191.623 17.012 191.502 17.3013 191.502 17.656H191.446V16.2H193.154ZM201.584 16.2V33H197.552V16.2H201.584ZM208.136 31.88L208.78 33H201.528V31.88H208.136ZM207.184 24.124V25.244H201.528V24.124H207.184ZM208.444 16.2V17.32H201.528V16.2H208.444ZM209.928 27.848L208.864 33H204.02L204.888 31.88C205.69 31.88 206.4 31.7213 207.016 31.404C207.65 31.068 208.192 30.6013 208.64 30.004C209.088 29.388 209.433 28.6693 209.676 27.848H209.928ZM207.184 25.188V27.652H206.904V27.428C206.904 26.812 206.708 26.2987 206.316 25.888C205.942 25.4773 205.429 25.2627 204.776 25.244V25.188H207.184ZM207.184 21.716V24.18H204.776V24.124C205.429 24.1053 205.942 23.8907 206.316 23.48C206.708 23.0507 206.904 22.528 206.904 21.912V21.716H207.184ZM208.444 17.264V20.232H208.164V19.98C208.164 19.1587 207.94 18.5147 207.492 18.048C207.062 17.5813 206.437 17.3387 205.616 17.32V17.264H208.444ZM208.444 15.78V16.452L205.504 16.2C206.045 16.2 206.614 16.1533 207.212 16.06C207.809 15.948 208.22 15.8547 208.444 15.78ZM197.608 31.236L197.748 33H195.676V32.72C195.676 32.72 195.732 32.72 195.844 32.72C195.956 32.72 196.021 32.72 196.04 32.72C196.45 32.72 196.796 32.58 197.076 32.3C197.374 32.0013 197.533 31.6467 197.552 31.236H197.608ZM197.608 17.964H197.552C197.533 17.5347 197.374 17.18 197.076 16.9C196.796 16.62 196.45 16.48 196.04 16.48C196.021 16.48 195.956 16.48 195.844 16.48C195.732 16.48 195.676 16.48 195.676 16.48V16.2H197.748L197.608 17.964ZM220.524 33.364L212.292 16.34H217.052L222.148 28.212L220.524 33.364ZM220.524 33.364L220.412 30.088L226.488 16.284H228.532L222.064 29.948C222.027 30.0413 221.943 30.2373 221.812 30.536C221.682 30.816 221.542 31.1427 221.392 31.516C221.243 31.8707 221.103 32.216 220.972 32.552C220.86 32.888 220.795 33.1587 220.776 33.364H220.524ZM225.704 18.048C225.91 17.544 225.882 17.152 225.62 16.872C225.378 16.592 225.088 16.452 224.752 16.452H224.556V16.2H230.128V16.48C230.128 16.48 230.091 16.48 230.016 16.48C229.942 16.48 229.904 16.48 229.904 16.48C229.531 16.48 229.139 16.6013 228.728 16.844C228.318 17.068 227.972 17.4693 227.692 18.048H225.704ZM217.78 18.048H213.132C212.852 17.4693 212.507 17.068 212.096 16.844C211.704 16.6013 211.322 16.48 210.948 16.48C210.948 16.48 210.92 16.48 210.864 16.48C210.79 16.48 210.752 16.48 210.752 16.48V16.2H218.956V16.452H218.732C218.434 16.452 218.154 16.592 217.892 16.872C217.631 17.152 217.594 17.544 217.78 18.048ZM237.341 16.2V33H233.309V16.2H237.341ZM243.893 31.88L244.537 33H237.285V31.88H243.893ZM242.941 24.124V25.244H237.285V24.124H242.941ZM244.201 16.2V17.32H237.285V16.2H244.201ZM245.685 27.848L244.621 33H239.777L240.645 31.88C241.447 31.88 242.157 31.7213 242.773 31.404C243.407 31.068 243.949 30.6013 244.397 30.004C244.845 29.388 245.19 28.6693 245.433 27.848H245.685ZM242.941 25.188V27.652H242.661V27.428C242.661 26.812 242.465 26.2987 242.073 25.888C241.699 25.4773 241.186 25.2627 240.533 25.244V25.188H242.941ZM242.941 21.716V24.18H240.533V24.124C241.186 24.1053 241.699 23.8907 242.073 23.48C242.465 23.0507 242.661 22.528 242.661 21.912V21.716H242.941ZM244.201 17.264V20.232H243.921V19.98C243.921 19.1587 243.697 18.5147 243.249 18.048C242.819 17.5813 242.194 17.3387 241.373 17.32V17.264H244.201ZM244.201 15.78V16.452L241.261 16.2C241.802 16.2 242.371 16.1533 242.969 16.06C243.566 15.948 243.977 15.8547 244.201 15.78ZM233.365 31.236L233.505 33H231.433V32.72C231.433 32.72 231.489 32.72 231.601 32.72C231.713 32.72 231.778 32.72 231.797 32.72C232.207 32.72 232.553 32.58 232.833 32.3C233.131 32.0013 233.29 31.6467 233.309 31.236H233.365ZM233.365 17.964H233.309C233.29 17.5347 233.131 17.18 232.833 16.9C232.553 16.62 232.207 16.48 231.797 16.48C231.778 16.48 231.713 16.48 231.601 16.48C231.489 16.48 231.433 16.48 231.433 16.48V16.2H233.505L233.365 17.964ZM257.544 16.2C259.541 16.2 261.259 16.536 262.696 17.208C264.133 17.8613 265.235 18.8227 266 20.092C266.765 21.3427 267.148 22.8453 267.148 24.6C267.148 26.3547 266.765 27.8573 266 29.108C265.235 30.3587 264.133 31.32 262.696 31.992C261.259 32.664 259.541 33 257.544 33H251.328L251.272 31.88C252.691 31.88 253.829 31.88 254.688 31.88C255.565 31.88 256.2 31.88 256.592 31.88C257.003 31.88 257.208 31.88 257.208 31.88C258.963 31.88 260.344 31.236 261.352 29.948C262.36 28.66 262.864 26.8773 262.864 24.6C262.864 22.3227 262.36 20.54 261.352 19.252C260.344 17.9453 258.963 17.292 257.208 17.292C257.208 17.292 257.003 17.292 256.592 17.292C256.181 17.292 255.519 17.292 254.604 17.292C253.689 17.292 252.485 17.292 250.992 17.292V16.2H257.544ZM254.044 16.2V33H250.012V16.2H254.044ZM250.096 31.208V33H248.08V32.72C248.08 32.72 248.136 32.72 248.248 32.72C248.36 32.72 248.425 32.72 248.444 32.72C248.873 32.72 249.237 32.5707 249.536 32.272C249.853 31.9733 250.012 31.6187 250.012 31.208H250.096ZM250.068 17.964H250.012C249.993 17.5347 249.825 17.18 249.508 16.9C249.209 16.62 248.845 16.48 248.416 16.48C248.416 16.48 248.36 16.48 248.248 16.48C248.136 16.48 248.08 16.48 248.08 16.48V16.2H250.068V17.964ZM280.273 15.836C281.767 15.836 283.12 16.0413 284.333 16.452C285.547 16.844 286.592 17.4227 287.469 18.188C288.347 18.9533 289.019 19.8773 289.485 20.96C289.971 22.0427 290.213 23.2653 290.213 24.628C290.213 25.972 289.971 27.1853 289.485 28.268C289.019 29.332 288.347 30.2467 287.469 31.012C286.592 31.7773 285.547 32.3653 284.333 32.776C283.12 33.168 281.767 33.364 280.273 33.364C278.799 33.364 277.455 33.168 276.241 32.776C275.028 32.3653 273.983 31.7773 273.105 31.012C272.228 30.2467 271.556 29.332 271.089 28.268C270.623 27.1853 270.389 25.972 270.389 24.628C270.389 23.2653 270.623 22.0427 271.089 20.96C271.556 19.8773 272.228 18.9533 273.105 18.188C273.983 17.4227 275.028 16.844 276.241 16.452C277.455 16.0413 278.799 15.836 280.273 15.836ZM280.273 32.272C281.412 32.272 282.401 31.964 283.241 31.348C284.1 30.7133 284.753 29.8267 285.201 28.688C285.668 27.5493 285.901 26.196 285.901 24.628C285.901 23.0413 285.668 21.6787 285.201 20.54C284.753 19.3827 284.1 18.496 283.241 17.88C282.401 17.2453 281.412 16.928 280.273 16.928C279.153 16.928 278.173 17.2453 277.333 17.88C276.493 18.496 275.84 19.3827 275.373 20.54C274.907 21.6787 274.673 23.0413 274.673 24.628C274.673 26.196 274.907 27.5493 275.373 28.688C275.84 29.8267 276.493 30.7133 277.333 31.348C278.173 31.964 279.153 32.272 280.273 32.272Z" fill="white"/>
<defs>
<radialGradient id="paint0_radial_180_166" cx="0" cy="0" r="1" gradientUnits="userSpaceOnUse" gradientTransform="translate(25.2445 5) rotate(90) scale(50.7509 32.2972)">
<stop stop-color="#F7D587"/>
<stop offset="0.595199" stop-color="#8A5B08"/>
<stop offset="1" stop-opacity="0"/>
</radialGradient>
</defs>
</svg>
