<svg width="40" height="40" viewBox="0 0 40 40" fill="none" xmlns="http://www.w3.org/2000/svg">
<path fill-rule="evenodd" clip-rule="evenodd" d="M19.9998 0C8.95568 0 0 9.18045 0 20.5063C0 29.5669 5.73056 37.2532 13.6771 39.9651C14.6763 40.1553 15.0433 39.5202 15.0433 38.9786C15.0433 38.4896 15.0247 36.8743 15.0161 35.1608C9.45213 36.4012 8.27807 32.7413 8.27807 32.7413C7.36829 30.371 6.05745 29.7408 6.05745 29.7408C4.24253 28.4681 6.19423 28.4945 6.19423 28.4945C8.20222 28.6389 9.26004 30.6077 9.26004 30.6077C11.0438 33.742 13.9387 32.836 15.08 32.3124C15.2595 30.987 15.7778 30.0821 16.3498 29.57C11.9076 29.0521 7.23747 27.2935 7.23747 19.436C7.23747 17.1972 8.01908 15.3679 9.29846 13.9315C9.09047 13.4153 8.4059 11.3296 9.49187 8.50503C9.49187 8.50503 11.171 7.9539 14.9929 10.607C16.5886 10.1523 18.2998 9.92378 19.9998 9.91597C21.6988 9.92378 23.4111 10.1516 25.0097 10.6063C28.827 7.95322 30.5042 8.50435 30.5042 8.50435C31.5928 11.3286 30.9082 13.4146 30.7005 13.9308C31.9829 15.3672 32.7589 17.1965 32.7589 19.4353C32.7589 27.3115 28.0802 29.0453 23.6267 29.5533C24.3444 30.1897 24.9836 31.438 24.9836 33.3508C24.9836 36.0946 24.9604 38.3029 24.9604 38.9783C24.9604 39.524 25.3207 40.1634 26.3342 39.962C34.2761 37.2475 40 29.5635 40 20.5063C39.9997 9.18113 31.045 0 19.9998 0Z" fill="white"/>
</svg>
